<svg xmlns="http://www.w3.org/2000/svg" xmlns:xlink="http://www.w3.org/1999/xlink" width="500" zoomAndPan="magnify" viewBox="0 0 375 374.999991" height="500" preserveAspectRatio="xMidYMid meet" version="1.0"><defs><clipPath id="dd2ecef3f4"><path d="M 138 209 L 231 209 L 231 308.695312 L 138 308.695312 Z M 138 209 " clip-rule="nonzero"/></clipPath><clipPath id="6d916bafcb"><path d="M 245 66.445312 L 281 66.445312 L 281 122 L 245 122 Z M 245 66.445312 " clip-rule="nonzero"/></clipPath><clipPath id="e4c4a91200"><path d="M 87.628906 217 L 122 217 L 122 273 L 87.628906 273 Z M 87.628906 217 " clip-rule="nonzero"/></clipPath><clipPath id="24a206f174"><path d="M 37.5 37.5 L 112 37.5 L 112 112 L 37.5 112 Z M 37.5 37.5 " clip-rule="nonzero"/></clipPath></defs><path fill="#4a90e2" d="M 270.898438 186.910156 C 268.472656 190.644531 258.929688 190.15625 246.5 185.453125 L 252.230469 176.628906 C 255.855469 178.054688 259.359375 179.191406 262.664062 179.984375 C 266.347656 180.871094 269.636719 181.308594 272.503906 181.308594 C 273.226562 181.308594 273.921875 181.28125 274.589844 181.226562 Z M 220.316406 171.300781 L 226.125 162.359375 C 227.453125 163.289062 228.8125 164.203125 230.195312 165.101562 C 235.863281 168.785156 241.625 171.957031 247.207031 174.496094 L 241.445312 183.371094 C 236.054688 180.976562 230.269531 177.871094 224.386719 174.050781 C 222.988281 173.144531 221.632812 172.222656 220.316406 171.300781 Z M 198.738281 151.382812 L 204.367188 142.71875 C 208.800781 148.21875 214.792969 153.875 221.777344 159.183594 L 215.980469 168.113281 C 208.539062 162.398438 202.675781 156.554688 198.738281 151.382812 Z M 193.722656 136.785156 L 197.414062 131.101562 C 198.171875 133.273438 199.355469 135.605469 200.96875 138.082031 L 195.488281 146.519531 C 193.085938 142.273438 192.402344 138.816406 193.722656 136.785156 Z M 209.59375 120.859375 C 212.015625 120.859375 214.917969 121.246094 218.179688 122.03125 C 227.378906 124.238281 238.3125 129.269531 248.972656 136.191406 C 259.632812 143.113281 268.675781 151.058594 274.433594 158.5625 C 279.480469 165.136719 281.421875 170.703125 279.636719 173.453125 C 277.847656 176.207031 271.972656 176.699219 263.917969 174.757812 C 254.71875 172.550781 243.785156 167.519531 233.121094 160.597656 C 222.464844 153.671875 213.421875 145.726562 207.660156 138.222656 C 202.617188 131.652344 200.671875 126.085938 202.460938 123.332031 C 203.523438 121.695312 206.035156 120.859375 209.59375 120.859375 Z M 278.699219 155.292969 C 272.578125 147.316406 263.0625 138.929688 251.902344 131.683594 C 240.742188 124.4375 229.210938 119.152344 219.433594 116.804688 C 208.601562 114.199219 201.171875 115.445312 197.953125 120.40625 L 189.214844 133.859375 C 182.167969 144.710938 200.566406 164.988281 221.460938 178.558594 C 235.734375 187.828125 252.398438 194.761719 263.769531 194.761719 C 269.039062 194.761719 273.175781 193.273438 275.40625 189.835938 L 284.144531 176.382812 C 287.363281 171.421875 285.480469 164.128906 278.699219 155.292969 " fill-opacity="1" fill-rule="nonzero"/><path fill="#4a90e2" d="M 132.914062 187.957031 L 128.050781 186.371094 C 130.121094 184.859375 132.398438 182.625 134.867188 179.410156 C 136.613281 177.140625 138.308594 174.550781 139.933594 171.714844 L 147.894531 174.3125 C 142.035156 184.207031 136.074219 188.992188 132.914062 187.957031 Z M 120.351562 142.46875 C 127.46875 120.636719 137.984375 108.695312 143.230469 108.695312 C 143.554688 108.695312 143.859375 108.738281 144.140625 108.832031 C 148.984375 110.410156 151.097656 126.84375 143.539062 150.027344 C 140.152344 160.421875 135.558594 169.691406 130.605469 176.136719 C 126.410156 181.597656 122.246094 184.480469 119.75 183.664062 C 117.25 182.851562 115.589844 178.066406 115.414062 171.183594 C 115.210938 163.0625 116.964844 152.863281 120.351562 142.46875 Z M 161.046875 119.726562 L 153.566406 117.289062 C 153.335938 115.183594 152.953125 113.246094 152.40625 111.527344 L 157.308594 113.125 C 159.011719 113.679688 160.328125 116.078125 161.046875 119.726562 Z M 161.640625 125.574219 C 161.640625 125.585938 161.640625 125.59375 161.644531 125.605469 C 161.789062 131.382812 160.9375 138.214844 159.21875 145.414062 L 151.164062 142.785156 C 152.808594 135.914062 153.773438 129.054688 153.828125 123.027344 Z M 150.511719 169.511719 L 142.496094 166.898438 C 144.796875 162.246094 146.882812 157.105469 148.648438 151.691406 C 149.046875 150.46875 149.425781 149.230469 149.785156 147.992188 L 157.84375 150.617188 C 157.488281 151.847656 157.109375 153.082031 156.707031 154.320312 C 154.824219 160.085938 152.707031 165.164062 150.511719 169.511719 Z M 161.816406 155.984375 C 165.390625 145.027344 167.234375 134.1875 167.015625 125.46875 C 166.707031 113.105469 162.472656 109.15625 158.972656 108.015625 L 145.816406 103.726562 C 145.8125 103.722656 145.8125 103.722656 145.808594 103.722656 C 134.960938 100.195312 121.960938 120.1875 115.242188 140.804688 C 111.671875 151.761719 109.824219 162.601562 110.042969 171.320312 C 110.351562 183.679688 114.585938 187.632812 118.085938 188.773438 C 118.085938 188.773438 118.089844 188.773438 118.09375 188.777344 L 131.25 193.066406 C 132.097656 193.339844 132.957031 193.476562 133.828125 193.476562 C 144.089844 193.476562 155.621094 174.988281 161.816406 155.984375 " fill-opacity="1" fill-rule="nonzero"/><g clip-path="url(#dd2ecef3f4)"><path fill="#4a90e2" d="M 202.011719 280.9375 L 191.492188 271.910156 C 192.65625 270.664062 193.800781 269.375 194.933594 268.0625 C 196.066406 266.738281 197.160156 265.40625 198.214844 264.070312 L 208.734375 273.097656 C 207.691406 274.425781 206.597656 275.753906 205.457031 277.085938 C 204.3125 278.421875 203.164062 279.703125 202.011719 280.9375 Z M 160.785156 301.535156 L 154.175781 295.863281 C 156.738281 295.539062 159.53125 294.761719 162.511719 293.539062 L 172.398438 302.027344 C 167.238281 303.679688 163.125 303.542969 160.785156 301.535156 Z M 177.984375 299.730469 L 167.804688 291 C 170.578125 289.488281 173.40625 287.679688 176.234375 285.609375 L 186.625 294.523438 C 183.617188 296.644531 180.710938 298.382812 177.984375 299.730469 Z M 191.015625 291.207031 L 180.5625 282.242188 C 182.976562 280.253906 185.378906 278.085938 187.734375 275.769531 L 198.242188 284.785156 C 195.816406 287.148438 193.394531 289.292969 191.015625 291.207031 Z M 145.488281 271.183594 C 148.605469 261.753906 155.019531 251.082031 163.550781 241.140625 C 178.230469 224.027344 193.976562 215.0625 202.953125 215.0625 C 205.152344 215.0625 206.949219 215.601562 208.21875 216.691406 C 214.675781 222.230469 209.132812 243.253906 190.855469 264.558594 C 182.324219 274.503906 172.753906 282.46875 163.90625 286.984375 C 155.902344 291.066406 149.445312 291.804688 146.183594 289.007812 C 142.921875 286.210938 142.667969 279.714844 145.488281 271.183594 Z M 211.964844 268.789062 L 201.457031 259.773438 C 203.40625 257.0625 205.175781 254.363281 206.753906 251.695312 L 217.214844 260.667969 C 215.683594 263.3125 213.933594 266.027344 211.964844 268.789062 Z M 219.824219 255.824219 L 209.417969 246.898438 C 211.046875 243.746094 212.390625 240.671875 213.4375 237.722656 L 223.65625 246.488281 C 222.742188 249.390625 221.464844 252.527344 219.824219 255.824219 Z M 225.078125 240.625 L 215.117188 232.085938 C 215.851562 228.980469 216.195312 226.085938 216.125 223.476562 L 222.820312 229.21875 C 225.164062 231.226562 225.925781 235.273438 225.078125 240.625 Z M 226.324219 225.140625 L 211.722656 212.613281 C 201.773438 204.085938 178.828125 215.078125 159.472656 237.640625 C 150.496094 248.101562 143.71875 259.417969 140.386719 269.5 C 136.796875 280.359375 137.613281 288.734375 142.683594 293.085938 L 157.285156 305.613281 C 159.566406 307.566406 162.523438 308.496094 165.96875 308.496094 C 177.554688 308.496094 194.613281 297.976562 209.535156 280.585938 C 228.890625 258.023438 236.261719 233.667969 226.324219 225.140625 " fill-opacity="1" fill-rule="nonzero"/></g><g clip-path="url(#6d916bafcb)"><path fill="#4a90e2" d="M 262.890625 83.519531 C 264.425781 87.488281 266.847656 91.414062 270.648438 94.019531 C 266.847656 96.628906 264.425781 100.554688 262.890625 104.523438 C 261.347656 100.554688 258.929688 96.628906 255.128906 94.019531 C 258.929688 91.414062 261.347656 87.488281 262.890625 83.519531 Z M 245.746094 94.144531 C 245.75 94.195312 245.75 94.246094 245.757812 94.292969 C 245.761719 94.328125 245.765625 94.367188 245.769531 94.402344 C 245.777344 94.453125 245.785156 94.507812 245.796875 94.558594 C 245.800781 94.570312 245.800781 94.582031 245.804688 94.59375 C 245.808594 94.609375 245.808594 94.617188 245.8125 94.628906 C 245.847656 94.769531 245.886719 94.902344 245.9375 95.03125 C 245.945312 95.046875 245.957031 95.066406 245.964844 95.085938 C 246.015625 95.203125 246.070312 95.3125 246.140625 95.421875 C 246.144531 95.4375 246.152344 95.453125 246.164062 95.464844 C 246.234375 95.578125 246.3125 95.679688 246.398438 95.777344 C 246.417969 95.796875 246.433594 95.820312 246.449219 95.839844 C 246.539062 95.929688 246.632812 96.019531 246.730469 96.101562 C 246.75 96.117188 246.769531 96.132812 246.785156 96.144531 C 246.890625 96.226562 247.003906 96.300781 247.121094 96.367188 C 247.128906 96.371094 247.136719 96.375 247.144531 96.378906 C 247.253906 96.441406 247.371094 96.492188 247.492188 96.539062 C 247.515625 96.546875 247.535156 96.554688 247.554688 96.558594 C 247.652344 96.59375 247.75 96.625 247.855469 96.644531 C 260.058594 99.320312 260.199219 118.589844 260.203125 118.890625 C 260.203125 118.894531 260.203125 118.90625 260.203125 118.914062 C 260.203125 118.964844 260.207031 119.015625 260.210938 119.070312 C 260.214844 119.105469 260.214844 119.140625 260.214844 119.171875 C 260.222656 119.246094 260.234375 119.316406 260.25 119.386719 C 260.253906 119.40625 260.253906 119.421875 260.257812 119.4375 C 260.414062 120.214844 260.90625 120.867188 261.578125 121.246094 C 261.585938 121.25 261.59375 121.257812 261.601562 121.257812 C 261.660156 121.289062 261.714844 121.316406 261.773438 121.34375 C 261.796875 121.351562 261.816406 121.363281 261.839844 121.375 C 261.886719 121.394531 261.929688 121.410156 261.980469 121.425781 C 262.015625 121.4375 262.050781 121.453125 262.089844 121.464844 C 262.125 121.476562 262.164062 121.484375 262.203125 121.496094 C 262.25 121.507812 262.296875 121.519531 262.347656 121.53125 C 262.378906 121.539062 262.414062 121.542969 262.449219 121.546875 C 262.503906 121.554688 262.558594 121.566406 262.609375 121.574219 C 262.648438 121.578125 262.691406 121.578125 262.730469 121.578125 C 262.78125 121.582031 262.832031 121.585938 262.882812 121.585938 C 262.882812 121.585938 262.886719 121.585938 262.890625 121.585938 C 262.890625 121.585938 262.894531 121.585938 262.894531 121.585938 C 262.9375 121.585938 262.976562 121.582031 263.019531 121.582031 C 263.066406 121.578125 263.117188 121.578125 263.167969 121.570312 C 263.203125 121.566406 263.234375 121.558594 263.269531 121.554688 C 263.324219 121.550781 263.378906 121.542969 263.433594 121.53125 C 263.460938 121.523438 263.484375 121.515625 263.511719 121.511719 C 263.570312 121.496094 263.632812 121.480469 263.691406 121.464844 C 263.710938 121.457031 263.726562 121.449219 263.746094 121.445312 C 263.8125 121.421875 263.875 121.398438 263.941406 121.375 C 263.945312 121.371094 263.953125 121.363281 263.960938 121.363281 C 264.675781 121.050781 265.226562 120.441406 265.457031 119.691406 C 265.457031 119.691406 265.457031 119.6875 265.457031 119.6875 C 265.484375 119.605469 265.503906 119.523438 265.523438 119.4375 C 265.527344 119.417969 265.527344 119.398438 265.53125 119.382812 C 265.542969 119.3125 265.554688 119.246094 265.5625 119.171875 C 265.566406 119.140625 265.566406 119.105469 265.566406 119.070312 C 265.570312 119.015625 265.574219 118.964844 265.574219 118.914062 C 265.574219 118.90625 265.574219 118.894531 265.574219 118.890625 C 265.574219 118.589844 265.71875 99.320312 277.921875 96.644531 C 278.023438 96.625 278.125 96.59375 278.222656 96.558594 C 278.242188 96.554688 278.261719 96.546875 278.28125 96.539062 C 278.402344 96.492188 278.519531 96.441406 278.632812 96.378906 C 278.640625 96.375 278.648438 96.371094 278.65625 96.367188 C 278.773438 96.300781 278.886719 96.226562 278.992188 96.144531 C 279.007812 96.132812 279.027344 96.117188 279.042969 96.101562 C 279.144531 96.019531 279.238281 95.929688 279.324219 95.839844 C 279.34375 95.820312 279.359375 95.796875 279.375 95.777344 C 279.460938 95.679688 279.542969 95.578125 279.613281 95.464844 C 279.621094 95.453125 279.628906 95.4375 279.640625 95.421875 C 279.703125 95.3125 279.761719 95.203125 279.8125 95.085938 C 279.820312 95.066406 279.828125 95.046875 279.835938 95.03125 C 279.890625 94.902344 279.929688 94.769531 279.960938 94.628906 C 279.964844 94.617188 279.972656 94.609375 279.972656 94.59375 C 279.976562 94.582031 279.976562 94.570312 279.980469 94.558594 C 279.988281 94.507812 280 94.453125 280.003906 94.402344 C 280.011719 94.367188 280.019531 94.328125 280.023438 94.292969 C 280.023438 94.246094 280.027344 94.195312 280.027344 94.144531 C 280.03125 94.105469 280.035156 94.0625 280.035156 94.019531 C 280.035156 93.980469 280.03125 93.9375 280.027344 93.894531 C 280.027344 93.847656 280.023438 93.796875 280.023438 93.746094 C 280.019531 93.710938 280.011719 93.675781 280.003906 93.640625 C 280 93.585938 279.988281 93.535156 279.980469 93.480469 C 279.976562 93.46875 279.976562 93.457031 279.972656 93.445312 C 279.96875 93.417969 279.960938 93.398438 279.953125 93.371094 C 279.941406 93.324219 279.929688 93.277344 279.914062 93.226562 C 279.898438 93.183594 279.886719 93.144531 279.871094 93.101562 C 279.855469 93.0625 279.84375 93.023438 279.824219 92.988281 C 279.808594 92.941406 279.785156 92.894531 279.765625 92.847656 C 279.75 92.820312 279.734375 92.785156 279.71875 92.757812 C 279.691406 92.707031 279.664062 92.660156 279.636719 92.613281 C 279.621094 92.585938 279.601562 92.5625 279.585938 92.535156 C 279.554688 92.488281 279.523438 92.445312 279.492188 92.402344 C 279.472656 92.375 279.449219 92.347656 279.429688 92.320312 C 279.394531 92.285156 279.363281 92.246094 279.332031 92.210938 C 279.304688 92.179688 279.277344 92.152344 279.25 92.121094 C 279.21875 92.09375 279.1875 92.066406 279.15625 92.035156 C 279.121094 92.003906 279.085938 91.972656 279.046875 91.941406 C 279.019531 91.921875 278.992188 91.902344 278.96875 91.878906 C 278.925781 91.84375 278.878906 91.816406 278.832031 91.78125 C 278.808594 91.765625 278.785156 91.75 278.761719 91.734375 C 278.710938 91.707031 278.660156 91.675781 278.605469 91.648438 C 278.582031 91.636719 278.558594 91.625 278.53125 91.609375 C 278.480469 91.585938 278.429688 91.5625 278.375 91.539062 C 278.347656 91.527344 278.316406 91.515625 278.289062 91.503906 C 278.234375 91.484375 278.183594 91.46875 278.132812 91.453125 C 278.097656 91.441406 278.058594 91.433594 278.027344 91.425781 C 277.992188 91.414062 277.957031 91.402344 277.921875 91.398438 C 265.71875 88.71875 265.574219 69.453125 265.574219 69.152344 C 265.574219 69.144531 265.574219 69.132812 265.574219 69.128906 C 265.574219 69.078125 265.570312 69.027344 265.566406 68.972656 C 265.566406 68.9375 265.566406 68.902344 265.5625 68.867188 C 265.554688 68.792969 265.542969 68.726562 265.53125 68.65625 C 265.527344 68.636719 265.527344 68.621094 265.523438 68.605469 C 265.328125 67.652344 264.628906 66.882812 263.714844 66.585938 C 263.707031 66.582031 263.699219 66.582031 263.691406 66.578125 C 263.625 66.558594 263.558594 66.539062 263.488281 66.527344 C 263.472656 66.523438 263.453125 66.515625 263.4375 66.511719 C 263.378906 66.5 263.316406 66.492188 263.257812 66.484375 C 263.230469 66.480469 263.199219 66.472656 263.167969 66.46875 C 263.117188 66.464844 263.066406 66.464844 263.015625 66.460938 C 262.976562 66.460938 262.9375 66.457031 262.894531 66.457031 C 262.894531 66.457031 262.890625 66.457031 262.890625 66.457031 C 262.886719 66.457031 262.882812 66.457031 262.882812 66.457031 C 262.828125 66.457031 262.773438 66.460938 262.722656 66.464844 C 262.6875 66.464844 262.648438 66.464844 262.613281 66.46875 C 262.550781 66.476562 262.484375 66.484375 262.425781 66.496094 C 262.398438 66.503906 262.371094 66.503906 262.347656 66.511719 C 262.28125 66.523438 262.222656 66.539062 262.160156 66.558594 C 262.136719 66.566406 262.113281 66.566406 262.089844 66.574219 C 262.03125 66.59375 261.972656 66.617188 261.917969 66.640625 C 261.890625 66.648438 261.867188 66.65625 261.84375 66.664062 C 261.792969 66.6875 261.746094 66.710938 261.699219 66.734375 C 261.667969 66.75 261.636719 66.765625 261.609375 66.777344 C 261.570312 66.800781 261.535156 66.824219 261.496094 66.847656 C 261.460938 66.867188 261.421875 66.890625 261.386719 66.914062 C 261.359375 66.933594 261.332031 66.953125 261.304688 66.972656 C 261.261719 67.003906 261.21875 67.035156 261.179688 67.070312 C 261.160156 67.085938 261.144531 67.101562 261.128906 67.117188 C 261.078125 67.15625 261.03125 67.199219 260.984375 67.246094 C 260.976562 67.253906 260.96875 67.261719 260.960938 67.273438 C 260.910156 67.324219 260.859375 67.378906 260.8125 67.4375 C 260.808594 67.441406 260.804688 67.445312 260.800781 67.449219 C 260.640625 67.644531 260.511719 67.867188 260.410156 68.101562 C 260.410156 68.105469 260.410156 68.109375 260.40625 68.109375 C 260.375 68.1875 260.34375 68.265625 260.320312 68.347656 C 260.320312 68.355469 260.316406 68.367188 260.3125 68.375 C 260.292969 68.453125 260.273438 68.527344 260.257812 68.601562 C 260.253906 68.625 260.25 68.648438 260.246094 68.667969 C 260.234375 68.734375 260.222656 68.800781 260.214844 68.867188 C 260.214844 68.902344 260.214844 68.9375 260.210938 68.972656 C 260.207031 69.027344 260.203125 69.078125 260.203125 69.128906 C 260.203125 69.132812 260.203125 69.144531 260.203125 69.152344 C 260.199219 69.453125 260.058594 88.71875 247.855469 91.398438 C 247.804688 91.40625 247.761719 91.421875 247.714844 91.433594 C 247.699219 91.4375 247.6875 91.441406 247.671875 91.445312 C 247.59375 91.46875 247.519531 91.492188 247.445312 91.523438 C 247.441406 91.523438 247.441406 91.523438 247.4375 91.527344 C 247.113281 91.652344 246.828125 91.839844 246.585938 92.070312 C 246.578125 92.074219 246.570312 92.082031 246.566406 92.085938 C 246.515625 92.136719 246.464844 92.191406 246.417969 92.242188 C 246.402344 92.257812 246.390625 92.277344 246.375 92.289062 C 246.335938 92.335938 246.300781 92.382812 246.265625 92.433594 C 246.246094 92.457031 246.226562 92.484375 246.210938 92.511719 C 246.179688 92.554688 246.152344 92.597656 246.125 92.640625 C 246.105469 92.671875 246.085938 92.703125 246.066406 92.738281 C 246.046875 92.78125 246.023438 92.824219 246.003906 92.867188 C 245.988281 92.902344 245.96875 92.941406 245.953125 92.976562 C 245.933594 93.023438 245.917969 93.066406 245.902344 93.113281 C 245.890625 93.148438 245.875 93.1875 245.863281 93.222656 C 245.847656 93.273438 245.835938 93.324219 245.824219 93.375 C 245.816406 93.398438 245.808594 93.421875 245.804688 93.445312 C 245.800781 93.457031 245.800781 93.46875 245.796875 93.480469 C 245.785156 93.535156 245.777344 93.585938 245.769531 93.640625 C 245.765625 93.675781 245.761719 93.710938 245.757812 93.746094 C 245.75 93.796875 245.75 93.847656 245.746094 93.894531 C 245.746094 93.9375 245.742188 93.980469 245.742188 94.019531 C 245.742188 94.0625 245.746094 94.105469 245.746094 94.144531 " fill-opacity="1" fill-rule="nonzero"/></g><g clip-path="url(#e4c4a91200)"><path fill="#4a90e2" d="M 104.792969 255.140625 C 103.253906 251.167969 100.835938 247.246094 97.03125 244.636719 C 100.835938 242.03125 103.253906 238.105469 104.792969 234.136719 C 106.332031 238.105469 108.75 242.03125 112.554688 244.636719 C 108.75 247.246094 106.332031 251.167969 104.792969 255.140625 Z M 121.9375 244.511719 C 121.933594 244.464844 121.933594 244.414062 121.925781 244.367188 C 121.921875 244.332031 121.917969 244.292969 121.910156 244.257812 C 121.902344 244.207031 121.898438 244.152344 121.886719 244.097656 C 121.882812 244.085938 121.882812 244.078125 121.878906 244.0625 C 121.875 244.039062 121.863281 244.015625 121.859375 243.992188 C 121.847656 243.941406 121.835938 243.890625 121.820312 243.84375 C 121.808594 243.800781 121.792969 243.761719 121.777344 243.726562 C 121.765625 243.683594 121.746094 243.640625 121.730469 243.601562 C 121.714844 243.558594 121.691406 243.515625 121.671875 243.472656 C 121.65625 243.4375 121.640625 243.402344 121.621094 243.371094 C 121.597656 243.328125 121.570312 243.28125 121.546875 243.238281 C 121.527344 243.207031 121.507812 243.179688 121.488281 243.148438 C 121.460938 243.105469 121.433594 243.066406 121.402344 243.027344 C 121.378906 242.996094 121.355469 242.964844 121.332031 242.9375 C 121.304688 242.902344 121.273438 242.867188 121.242188 242.835938 C 121.210938 242.800781 121.183594 242.769531 121.148438 242.738281 C 121.125 242.710938 121.097656 242.683594 121.066406 242.660156 C 121.027344 242.621094 120.988281 242.589844 120.949219 242.554688 C 120.925781 242.535156 120.902344 242.519531 120.878906 242.5 C 120.832031 242.464844 120.78125 242.429688 120.730469 242.398438 C 120.714844 242.382812 120.691406 242.371094 120.671875 242.359375 C 120.617188 242.324219 120.5625 242.292969 120.507812 242.265625 C 120.488281 242.253906 120.46875 242.242188 120.445312 242.234375 C 120.390625 242.203125 120.332031 242.179688 120.273438 242.15625 C 120.25 242.144531 120.226562 242.136719 120.203125 242.125 C 120.144531 242.105469 120.089844 242.085938 120.03125 242.070312 C 120.003906 242.058594 119.972656 242.050781 119.941406 242.042969 C 119.90625 242.035156 119.867188 242.023438 119.828125 242.011719 C 107.625 239.339844 107.484375 220.070312 107.480469 219.769531 C 107.480469 219.761719 107.480469 219.753906 107.480469 219.75 C 107.480469 219.695312 107.476562 219.644531 107.472656 219.59375 C 107.46875 219.554688 107.46875 219.519531 107.464844 219.484375 C 107.460938 219.417969 107.449219 219.347656 107.4375 219.28125 C 107.433594 219.261719 107.429688 219.242188 107.425781 219.21875 C 107.410156 219.136719 107.390625 219.058594 107.367188 218.980469 C 107.363281 218.976562 107.363281 218.96875 107.363281 218.964844 C 107.207031 218.460938 106.90625 218.023438 106.511719 217.695312 C 106.511719 217.695312 106.507812 217.691406 106.507812 217.691406 C 106.449219 217.644531 106.390625 217.597656 106.328125 217.558594 C 106.320312 217.550781 106.308594 217.542969 106.300781 217.535156 C 106.25 217.5 106.195312 217.46875 106.140625 217.4375 C 106.121094 217.425781 106.097656 217.410156 106.078125 217.398438 C 106.03125 217.375 105.988281 217.355469 105.941406 217.332031 C 105.910156 217.320312 105.875 217.300781 105.84375 217.285156 C 105.804688 217.269531 105.765625 217.257812 105.730469 217.242188 C 105.683594 217.226562 105.640625 217.207031 105.59375 217.195312 C 105.5625 217.183594 105.53125 217.179688 105.5 217.167969 C 105.445312 217.15625 105.394531 217.140625 105.335938 217.128906 C 105.308594 217.121094 105.273438 217.117188 105.246094 217.113281 C 105.1875 217.105469 105.128906 217.09375 105.070312 217.085938 C 105.03125 217.082031 104.996094 217.082031 104.957031 217.082031 C 104.90625 217.078125 104.851562 217.070312 104.800781 217.070312 C 104.800781 217.070312 104.796875 217.070312 104.792969 217.070312 C 104.792969 217.070312 104.789062 217.070312 104.785156 217.070312 C 104.734375 217.070312 104.683594 217.078125 104.628906 217.082031 C 104.59375 217.082031 104.554688 217.082031 104.519531 217.085938 C 104.453125 217.09375 104.390625 217.105469 104.328125 217.117188 C 104.304688 217.121094 104.277344 217.121094 104.25 217.128906 C 104.1875 217.140625 104.125 217.15625 104.0625 217.175781 C 104.042969 217.183594 104.015625 217.1875 103.996094 217.195312 C 103.9375 217.210938 103.878906 217.234375 103.820312 217.257812 C 103.796875 217.265625 103.773438 217.273438 103.75 217.28125 C 103.699219 217.304688 103.652344 217.328125 103.601562 217.355469 C 103.574219 217.367188 103.542969 217.382812 103.511719 217.398438 C 103.472656 217.417969 103.4375 217.441406 103.402344 217.464844 C 103.363281 217.488281 103.328125 217.507812 103.289062 217.53125 C 103.261719 217.550781 103.238281 217.574219 103.210938 217.589844 C 103.167969 217.621094 103.125 217.65625 103.082031 217.6875 C 103.066406 217.703125 103.050781 217.71875 103.03125 217.734375 C 102.984375 217.777344 102.933594 217.820312 102.890625 217.863281 C 102.882812 217.871094 102.875 217.882812 102.867188 217.890625 C 102.8125 217.945312 102.765625 217.996094 102.71875 218.054688 C 102.714844 218.058594 102.710938 218.0625 102.707031 218.066406 C 102.550781 218.261719 102.417969 218.484375 102.316406 218.71875 C 102.316406 218.722656 102.3125 218.722656 102.3125 218.726562 C 102.28125 218.804688 102.253906 218.882812 102.226562 218.964844 C 102.222656 218.976562 102.222656 218.984375 102.21875 218.996094 C 102.199219 219.070312 102.175781 219.144531 102.160156 219.21875 C 102.15625 219.242188 102.15625 219.261719 102.152344 219.285156 C 102.140625 219.351562 102.128906 219.417969 102.121094 219.484375 C 102.117188 219.519531 102.117188 219.554688 102.117188 219.59375 C 102.113281 219.644531 102.105469 219.695312 102.105469 219.75 C 102.105469 219.753906 102.105469 219.761719 102.105469 219.769531 C 102.105469 220.070312 101.964844 239.339844 89.757812 242.011719 C 89.710938 242.023438 89.667969 242.039062 89.621094 242.050781 C 89.605469 242.054688 89.589844 242.058594 89.574219 242.066406 C 89.5 242.085938 89.429688 242.113281 89.359375 242.140625 C 89.351562 242.140625 89.34375 242.144531 89.335938 242.144531 C 89.257812 242.175781 89.183594 242.210938 89.109375 242.25 C 89.109375 242.25 89.109375 242.25 89.105469 242.25 C 89.03125 242.289062 88.957031 242.332031 88.886719 242.378906 C 88.8125 242.421875 88.746094 242.472656 88.683594 242.523438 C 88.679688 242.527344 88.671875 242.53125 88.667969 242.53125 C 88.609375 242.578125 88.550781 242.628906 88.496094 242.683594 C 88.484375 242.691406 88.476562 242.703125 88.464844 242.710938 C 88.417969 242.757812 88.371094 242.808594 88.324219 242.859375 C 88.308594 242.875 88.292969 242.894531 88.277344 242.914062 C 88.238281 242.957031 88.203125 243 88.171875 243.046875 C 88.148438 243.078125 88.132812 243.101562 88.113281 243.128906 C 88.085938 243.171875 88.058594 243.214844 88.03125 243.257812 C 88.011719 243.289062 87.992188 243.324219 87.976562 243.359375 C 87.949219 243.398438 87.929688 243.441406 87.910156 243.488281 C 87.894531 243.523438 87.875 243.558594 87.859375 243.59375 C 87.839844 243.640625 87.824219 243.6875 87.808594 243.734375 C 87.792969 243.769531 87.78125 243.804688 87.769531 243.839844 C 87.753906 243.890625 87.738281 243.941406 87.726562 243.992188 C 87.722656 244.015625 87.714844 244.039062 87.707031 244.0625 C 87.707031 244.078125 87.703125 244.085938 87.703125 244.097656 C 87.691406 244.152344 87.683594 244.207031 87.675781 244.257812 C 87.671875 244.292969 87.664062 244.332031 87.660156 244.367188 C 87.65625 244.414062 87.652344 244.464844 87.652344 244.511719 C 87.648438 244.554688 87.644531 244.597656 87.644531 244.636719 C 87.644531 244.679688 87.648438 244.722656 87.652344 244.761719 C 87.652344 244.8125 87.65625 244.863281 87.660156 244.910156 C 87.664062 244.945312 87.671875 244.984375 87.675781 245.019531 C 87.683594 245.070312 87.691406 245.125 87.703125 245.175781 C 87.703125 245.191406 87.707031 245.203125 87.707031 245.214844 C 87.710938 245.226562 87.71875 245.238281 87.71875 245.25 C 87.75 245.386719 87.792969 245.519531 87.84375 245.648438 C 87.851562 245.667969 87.859375 245.683594 87.867188 245.703125 C 87.917969 245.820312 87.976562 245.929688 88.042969 246.042969 C 88.054688 246.054688 88.058594 246.070312 88.066406 246.085938 C 88.140625 246.195312 88.21875 246.296875 88.304688 246.394531 C 88.320312 246.417969 88.339844 246.4375 88.355469 246.457031 C 88.441406 246.550781 88.535156 246.636719 88.636719 246.71875 C 88.65625 246.734375 88.671875 246.75 88.6875 246.761719 C 88.796875 246.84375 88.90625 246.921875 89.023438 246.984375 C 89.03125 246.988281 89.042969 246.992188 89.050781 247 C 89.160156 247.058594 89.277344 247.109375 89.402344 247.15625 C 89.421875 247.164062 89.441406 247.171875 89.460938 247.179688 C 89.558594 247.214844 89.65625 247.242188 89.757812 247.265625 C 101.964844 249.9375 102.105469 269.207031 102.105469 269.507812 C 102.105469 269.511719 102.105469 269.523438 102.105469 269.527344 C 102.105469 269.582031 102.113281 269.632812 102.117188 269.683594 C 102.117188 269.71875 102.117188 269.753906 102.121094 269.792969 C 102.128906 269.859375 102.140625 269.929688 102.152344 269.996094 C 102.15625 270.015625 102.15625 270.035156 102.160156 270.054688 C 102.175781 270.136719 102.199219 270.214844 102.222656 270.296875 C 102.222656 270.300781 102.226562 270.304688 102.226562 270.308594 C 102.382812 270.8125 102.679688 271.253906 103.074219 271.582031 C 103.078125 271.582031 103.078125 271.585938 103.082031 271.585938 C 103.136719 271.632812 103.195312 271.679688 103.257812 271.722656 C 103.265625 271.726562 103.277344 271.734375 103.289062 271.742188 C 103.339844 271.777344 103.390625 271.808594 103.445312 271.839844 C 103.46875 271.851562 103.488281 271.867188 103.511719 271.878906 C 103.554688 271.902344 103.597656 271.921875 103.644531 271.941406 C 103.679688 271.960938 103.710938 271.976562 103.746094 271.992188 C 103.78125 272.007812 103.820312 272.019531 103.855469 272.03125 C 103.902344 272.050781 103.945312 272.066406 103.992188 272.082031 C 104.023438 272.09375 104.058594 272.097656 104.089844 272.105469 C 104.140625 272.121094 104.195312 272.136719 104.25 272.148438 C 104.28125 272.15625 104.3125 272.15625 104.34375 272.164062 C 104.398438 272.171875 104.457031 272.183594 104.519531 272.1875 C 104.554688 272.191406 104.59375 272.191406 104.632812 272.195312 C 104.683594 272.199219 104.734375 272.203125 104.785156 272.203125 C 104.789062 272.203125 104.792969 272.203125 104.792969 272.203125 C 104.796875 272.203125 104.800781 272.203125 104.800781 272.203125 C 104.855469 272.203125 104.90625 272.199219 104.957031 272.195312 C 104.996094 272.191406 105.035156 272.191406 105.070312 272.1875 C 105.132812 272.179688 105.195312 272.171875 105.257812 272.160156 C 105.285156 272.15625 105.3125 272.152344 105.335938 272.148438 C 105.398438 272.136719 105.460938 272.117188 105.523438 272.101562 C 105.546875 272.09375 105.570312 272.089844 105.59375 272.082031 C 105.652344 272.0625 105.707031 272.042969 105.765625 272.019531 C 105.789062 272.011719 105.816406 272.003906 105.839844 271.992188 C 105.890625 271.972656 105.9375 271.945312 105.984375 271.921875 C 106.015625 271.90625 106.046875 271.894531 106.074219 271.878906 C 106.113281 271.859375 106.148438 271.835938 106.1875 271.8125 C 106.222656 271.789062 106.261719 271.765625 106.296875 271.742188 C 106.324219 271.722656 106.351562 271.703125 106.375 271.683594 C 106.417969 271.652344 106.464844 271.621094 106.503906 271.589844 C 106.523438 271.574219 106.539062 271.558594 106.554688 271.542969 C 106.605469 271.5 106.652344 271.457031 106.695312 271.414062 C 106.707031 271.40625 106.714844 271.394531 106.722656 271.386719 C 106.773438 271.332031 106.824219 271.277344 106.871094 271.222656 C 106.875 271.21875 106.875 271.214844 106.878906 271.207031 C 107.039062 271.011719 107.171875 270.792969 107.273438 270.554688 C 107.273438 270.554688 107.273438 270.550781 107.277344 270.546875 C 107.308594 270.46875 107.335938 270.390625 107.363281 270.3125 C 107.363281 270.300781 107.367188 270.292969 107.367188 270.28125 C 107.390625 270.210938 107.410156 270.132812 107.425781 270.054688 C 107.429688 270.035156 107.433594 270.011719 107.4375 269.992188 C 107.449219 269.925781 107.460938 269.859375 107.464844 269.792969 C 107.46875 269.753906 107.46875 269.71875 107.472656 269.683594 C 107.476562 269.632812 107.480469 269.582031 107.480469 269.527344 C 107.480469 269.523438 107.480469 269.511719 107.480469 269.507812 C 107.484375 269.207031 107.625 249.9375 119.828125 247.265625 C 119.929688 247.242188 120.03125 247.214844 120.128906 247.179688 C 120.148438 247.171875 120.167969 247.164062 120.1875 247.15625 C 120.308594 247.109375 120.429688 247.058594 120.539062 247 C 120.546875 246.992188 120.554688 246.988281 120.5625 246.984375 C 120.683594 246.921875 120.792969 246.84375 120.898438 246.761719 C 120.914062 246.75 120.933594 246.734375 120.949219 246.71875 C 121.050781 246.636719 121.144531 246.550781 121.230469 246.457031 C 121.25 246.4375 121.265625 246.417969 121.28125 246.394531 C 121.367188 246.296875 121.449219 246.195312 121.519531 246.085938 C 121.527344 246.070312 121.535156 246.054688 121.542969 246.042969 C 121.609375 245.929688 121.667969 245.820312 121.71875 245.703125 C 121.726562 245.683594 121.734375 245.667969 121.742188 245.648438 C 121.796875 245.519531 121.835938 245.386719 121.867188 245.25 C 121.871094 245.238281 121.878906 245.226562 121.878906 245.214844 C 121.882812 245.203125 121.882812 245.191406 121.886719 245.175781 C 121.898438 245.125 121.902344 245.070312 121.910156 245.019531 C 121.917969 244.984375 121.921875 244.945312 121.925781 244.910156 C 121.933594 244.863281 121.933594 244.8125 121.9375 244.761719 C 121.9375 244.722656 121.941406 244.679688 121.941406 244.636719 C 121.941406 244.597656 121.9375 244.554688 121.9375 244.511719 " fill-opacity="1" fill-rule="nonzero"/></g><g clip-path="url(#24a206f174)"><path fill="#a9c4eb" d="M 74.722656 37.414062 C 74.316406 37.421875 73.917969 37.46875 73.519531 37.550781 C 73.125 37.636719 72.742188 37.757812 72.371094 37.917969 C 72 38.078125 71.644531 38.273438 71.3125 38.503906 C 70.980469 38.734375 70.671875 38.992188 70.390625 39.285156 C 70.109375 39.574219 69.855469 39.890625 69.636719 40.230469 C 69.417969 40.566406 69.230469 40.925781 69.082031 41.300781 C 68.933594 41.679688 68.820312 42.066406 68.746094 42.464844 C 68.671875 42.859375 68.640625 43.261719 68.644531 43.667969 L 68.644531 68.335938 L 43.976562 68.335938 C 43.566406 68.332031 43.160156 68.367188 42.761719 68.441406 C 42.359375 68.515625 41.96875 68.628906 41.589844 68.78125 C 41.210938 68.933594 40.847656 69.121094 40.507812 69.34375 C 40.164062 69.570312 39.847656 69.824219 39.558594 70.113281 C 39.265625 70.398438 39.007812 70.710938 38.777344 71.050781 C 38.550781 71.390625 38.355469 71.746094 38.199219 72.125 C 38.039062 72.5 37.921875 72.890625 37.839844 73.289062 C 37.761719 73.691406 37.71875 74.09375 37.71875 74.503906 C 37.71875 74.914062 37.761719 75.316406 37.839844 75.71875 C 37.921875 76.117188 38.039062 76.507812 38.199219 76.882812 C 38.355469 77.261719 38.550781 77.621094 38.777344 77.957031 C 39.007812 78.296875 39.265625 78.609375 39.558594 78.894531 C 39.847656 79.183594 40.164062 79.4375 40.507812 79.664062 C 40.847656 79.886719 41.210938 80.074219 41.589844 80.226562 C 41.96875 80.378906 42.359375 80.492188 42.761719 80.566406 C 43.160156 80.644531 43.566406 80.675781 43.976562 80.671875 L 68.644531 80.671875 L 68.644531 105.339844 C 68.640625 105.75 68.675781 106.15625 68.75 106.554688 C 68.824219 106.957031 68.9375 107.347656 69.089844 107.726562 C 69.242188 108.105469 69.429688 108.46875 69.652344 108.808594 C 69.878906 109.152344 70.132812 109.46875 70.421875 109.757812 C 70.707031 110.050781 71.019531 110.308594 71.359375 110.539062 C 71.695312 110.765625 72.054688 110.960938 72.433594 111.117188 C 72.808594 111.277344 73.199219 111.394531 73.597656 111.476562 C 74 111.554688 74.402344 111.597656 74.8125 111.597656 C 75.222656 111.597656 75.625 111.554688 76.027344 111.476562 C 76.425781 111.394531 76.816406 111.277344 77.191406 111.117188 C 77.570312 110.960938 77.929688 110.765625 78.265625 110.539062 C 78.605469 110.308594 78.917969 110.050781 79.203125 109.757812 C 79.492188 109.46875 79.746094 109.152344 79.972656 108.808594 C 80.195312 108.46875 80.382812 108.105469 80.535156 107.726562 C 80.6875 107.347656 80.800781 106.957031 80.875 106.554688 C 80.949219 106.15625 80.984375 105.75 80.980469 105.339844 L 80.980469 80.671875 L 105.648438 80.671875 C 106.058594 80.675781 106.464844 80.644531 106.863281 80.566406 C 107.265625 80.492188 107.65625 80.378906 108.035156 80.226562 C 108.414062 80.074219 108.777344 79.886719 109.117188 79.664062 C 109.460938 79.4375 109.777344 79.183594 110.066406 78.894531 C 110.359375 78.609375 110.617188 78.296875 110.847656 77.957031 C 111.074219 77.621094 111.269531 77.261719 111.425781 76.882812 C 111.585938 76.507812 111.703125 76.117188 111.785156 75.71875 C 111.863281 75.316406 111.90625 74.914062 111.90625 74.503906 C 111.90625 74.09375 111.863281 73.691406 111.785156 73.289062 C 111.703125 72.890625 111.585938 72.5 111.425781 72.125 C 111.269531 71.746094 111.074219 71.390625 110.847656 71.050781 C 110.617188 70.710938 110.359375 70.398438 110.066406 70.113281 C 109.777344 69.824219 109.460938 69.570312 109.117188 69.34375 C 108.777344 69.121094 108.414062 68.933594 108.035156 68.78125 C 107.65625 68.628906 107.265625 68.515625 106.863281 68.441406 C 106.464844 68.367188 106.058594 68.332031 105.648438 68.335938 L 80.980469 68.335938 L 80.980469 43.667969 C 80.984375 43.253906 80.949219 42.847656 80.875 42.441406 C 80.796875 42.035156 80.683594 41.640625 80.527344 41.261719 C 80.371094 40.878906 80.179688 40.515625 79.953125 40.171875 C 79.722656 39.828125 79.464844 39.511719 79.171875 39.21875 C 78.878906 38.929688 78.5625 38.667969 78.21875 38.441406 C 77.875 38.214844 77.511719 38.023438 77.128906 37.867188 C 76.746094 37.710938 76.355469 37.597656 75.949219 37.519531 C 75.542969 37.445312 75.132812 37.410156 74.722656 37.414062 Z M 74.722656 37.414062 " fill-opacity="1" fill-rule="nonzero"/></g></svg>